<svg xmlns="http://www.w3.org/2000/svg" width="52" height="58" viewBox="0 0 52 58" role="img" aria-label="WebAssembly">
<style>
.logo { animation: float 6s ease-in-out infinite; animation-delay: -1.33s; }
.line { animation: pulse 6s ease-in-out infinite; animation-delay: -1.33s; }
@keyframes float { 0%, 65%, 100% { transform: translateY(0); } 32% { transform: translateY(-3px); } }
@keyframes pulse { 0%, 65%, 100% { opacity: .18; } 32% { opacity: .85; } }
@media (prefers-reduced-motion: reduce) { .logo, .line { animation: none; } }
</style>
<title>WebAssembly</title><g class="logo"><svg xmlns="http://www.w3.org/2000/svg" viewBox="0 0 128 128" x="8" y="8" width="36" height="36"><path fill="#654ff0" d="M.223.222v127.555h127.555V.222H78.594c.014.227.036.455.036.686 0 8.08-6.55 14.626-14.63 14.626-8.078 0-14.625-6.546-14.625-14.626 0-.231.022-.459.031-.686zm29.595 68.746h8.445l5.782 30.738h.107l6.968-30.738h7.908l6.265 31.119h.106l6.597-31.119h8.284l-10.765 45.156H61.12l-6.213-30.738H54.8l-6.7 30.738h-8.557zm59.994 0h13.334l13.284 45.156h-8.77l-2.879-10.051H89.59l-2.212 10.05h-8.5ZM94.895 80.1l-3.684 16.57h11.473L98.448 80.1Z" /></svg></g>
<path class="line" d="M18 52H34" stroke="#ff233d" stroke-width="2" stroke-linecap="round" opacity=".3"/>
</svg>